# Blender v3.2.2 OBJ File: ''
# www.blender.org
o Cube
v 0.858173 0.715146 -0.940756
v 0.715146 0.715146 -1.000000
v 0.715146 0.858173 -0.940756
v 0.867338 0.867338 -0.863183
v 0.715146 0.940756 -0.858173
v 0.715146 1.000000 -0.715146
v 0.858173 0.940756 -0.715146
v 0.867338 0.863183 -0.867338
v 0.940756 0.715146 -0.858173
v 0.863183 0.867338 -0.867338
v 0.940756 0.858173 -0.715146
v 1.000000 0.715146 -0.715146
v 0.858173 -0.940756 -0.715146
v 0.715146 -1.000000 -0.715146
v 0.715146 -0.940756 -0.858173
v 0.867338 -0.863183 -0.867338
v 0.715146 -0.858173 -0.940756
v 0.715146 -0.715146 -1.000000
v 0.858173 -0.715146 -0.940756
v 0.867338 -0.867338 -0.863183
v 0.940756 -0.858173 -0.715146
v 0.863183 -0.867338 -0.867338
v 0.940756 -0.715146 -0.858173
v 1.000000 -0.715146 -0.715146
v 0.940756 0.715146 0.858173
v 1.000000 0.715146 0.715146
v 0.940756 0.858173 0.715146
v 0.863183 0.867338 0.867338
v 0.858173 0.940756 0.715146
v 0.715146 1.000000 0.715146
v 0.715146 0.940756 0.858173
v 0.867338 0.863183 0.867338
v 0.858173 0.715146 0.940756
v 0.867338 0.867338 0.863183
v 0.715146 0.858173 0.940756
v 0.715146 0.715146 1.000000
v 0.940756 -0.858173 0.715146
v 1.000000 -0.715146 0.715146
v 0.940756 -0.715146 0.858173
v 0.863183 -0.867338 0.867338
v 0.858173 -0.715146 0.940756
v 0.715146 -0.715146 1.000000
v 0.715146 -0.858173 0.940756
v 0.867338 -0.867338 0.863183
v 0.858173 -0.940756 0.715146
v 0.867338 -0.863183 0.867338
v 0.715146 -0.940756 0.858173
v 0.715146 -1.000000 0.715146
v -0.715146 0.858173 -0.940756
v -0.715146 0.715146 -1.000000
v -0.858173 0.715146 -0.940756
v -0.867338 0.867338 -0.863183
v -0.940756 0.715146 -0.858173
v -1.000000 0.715146 -0.715146
v -0.940756 0.858173 -0.715146
v -0.863183 0.867338 -0.867338
v -0.715146 0.940756 -0.858173
v -0.867338 0.863183 -0.867338
v -0.858173 0.940756 -0.715146
v -0.715146 1.000000 -0.715146
v -0.940756 -0.858173 -0.715146
v -1.000000 -0.715146 -0.715146
v -0.940756 -0.715146 -0.858173
v -0.863183 -0.867338 -0.867338
v -0.858173 -0.715146 -0.940756
v -0.715146 -0.715146 -1.000000
v -0.715146 -0.858173 -0.940756
v -0.867338 -0.867338 -0.863183
v -0.858173 -0.940756 -0.715146
v -0.867338 -0.863183 -0.867338
v -0.715146 -0.940756 -0.858173
v -0.715146 -1.000000 -0.715146
v -0.940756 0.858173 0.715146
v -1.000000 0.715146 0.715146
v -0.940756 0.715146 0.858173
v -0.863183 0.867338 0.867338
v -0.858173 0.715146 0.940756
v -0.715146 0.715146 1.000000
v -0.715146 0.858173 0.940756
v -0.867338 0.867338 0.863183
v -0.858173 0.940756 0.715146
v -0.867338 0.863183 0.867338
v -0.715146 0.940756 0.858173
v -0.715146 1.000000 0.715146
v -0.858173 -0.940756 0.715146
v -0.715146 -1.000000 0.715146
v -0.715146 -0.940756 0.858173
v -0.867338 -0.863183 0.867338
v -0.715146 -0.858173 0.940756
v -0.715146 -0.715146 1.000000
v -0.858173 -0.715146 0.940756
v -0.867338 -0.867338 0.863183
v -0.940756 -0.858173 0.715146
v -0.863183 -0.867338 0.867338
v -0.940756 -0.715146 0.858173
v -1.000000 -0.715146 0.715146
vt 0.589393 0.760323
vt 0.410607 0.760323
vt 0.410607 0.739677
vt 0.589393 0.739677
vt 0.142728 0.535607
vt 0.142728 0.714393
vt 0.132405 0.714393
vt 0.132405 0.535607
vt 0.357898 0.733417
vt 0.358417 0.732898
vt 0.358417 0.733417
vt 0.410607 0.535607
vt 0.589393 0.535607
vt 0.589393 0.714393
vt 0.410607 0.714393
vt 0.364677 0.714393
vt 0.364677 0.535607
vt 0.385323 0.535607
vt 0.385323 0.714393
vt 0.410607 0.285607
vt 0.589393 0.285607
vt 0.589393 0.464393
vt 0.410607 0.464393
vt 0.339393 0.517728
vt 0.160607 0.517729
vt 0.160607 0.507406
vt 0.339393 0.507405
vt 0.617595 0.785607
vt 0.617595 0.964393
vt 0.607272 0.964393
vt 0.607272 0.785607
vt 0.160607 0.732272
vt 0.339393 0.732272
vt 0.339393 0.742594
vt 0.160607 0.742595
vt 0.589393 0.260323
vt 0.410607 0.260323
vt 0.410607 0.239677
vt 0.589393 0.239677
vt 0.608417 0.016583
vt 0.608417 0.017102
vt 0.607898 0.016583
vt 0.410607 0.007405
vt 0.589393 0.007405
vt 0.589393 0.017728
vt 0.410607 0.017728
vt 0.142102 0.516583
vt 0.141583 0.517102
vt 0.141583 0.516583
vt 0.160607 0.535607
vt 0.339393 0.535607
vt 0.339393 0.714393
vt 0.160607 0.714393
vt 0.608417 0.483417
vt 0.607898 0.483417
vt 0.608417 0.482898
vt 0.141583 0.733417
vt 0.141583 0.732898
vt 0.142102 0.733417
vt 0.608417 0.767102
vt 0.607898 0.766583
vt 0.608417 0.766583
vt 0.617595 0.035607
vt 0.617595 0.214393
vt 0.607272 0.214393
vt 0.607272 0.035607
vt 0.410607 0.785607
vt 0.589393 0.785607
vt 0.589393 0.964393
vt 0.410607 0.964393
vt 0.660607 0.535607
vt 0.839393 0.535607
vt 0.839393 0.714393
vt 0.660607 0.714393
vt 0.608417 0.232898
vt 0.608417 0.233417
vt 0.607898 0.233417
vt 0.410607 0.035607
vt 0.589393 0.035607
vt 0.589393 0.214393
vt 0.410607 0.214393
vt 0.635323 0.535607
vt 0.635323 0.714393
vt 0.614677 0.714393
vt 0.614677 0.535607
vt 0.358417 0.516583
vt 0.358417 0.517102
vt 0.357898 0.516583
vt 0.617595 0.285607
vt 0.617595 0.464393
vt 0.607272 0.464393
vt 0.607272 0.285607
vt 0.589393 0.474866
vt 0.599866 0.464393
vt 0.599866 0.474866
vt 0.625000 0.464393
vt 0.625000 0.474866
vt 0.612173 0.474866
vt 0.589393 0.510323
vt 0.599866 0.499481
vt 0.599866 0.525134
vt 0.589393 0.525134
vt 0.349866 0.535607
vt 0.339393 0.525134
vt 0.349866 0.525134
vt 0.339393 0.500000
vt 0.349866 0.500000
vt 0.349866 0.512827
vt 0.374481 0.525134
vt 0.400134 0.525134
vt 0.400134 0.535607
vt 0.589393 0.724866
vt 0.599866 0.724866
vt 0.599866 0.750519
vt 0.625000 0.775134
vt 0.625000 0.785607
vt 0.612173 0.775134
vt 0.589393 0.775134
vt 0.599866 0.775134
vt 0.599866 0.785607
vt 0.367595 0.724866
vt 0.375000 0.724866
vt 0.367595 0.732272
vt 0.349866 0.750000
vt 0.339393 0.750000
vt 0.349866 0.737173
vt 0.349866 0.714393
vt 0.349866 0.724866
vt 0.339393 0.724866
vt 0.599866 0.275134
vt 0.589393 0.275134
vt 0.599866 0.249481
vt 0.589393 0.224866
vt 0.599866 0.214393
vt 0.599866 0.224866
vt 0.625000 0.224866
vt 0.612173 0.224866
vt 0.625000 0.214393
vt 0.125000 0.535607
vt 0.125000 0.525134
vt 0.137827 0.525134
vt 0.142728 0.507405
vt 0.150134 0.500000
vt 0.150134 0.507405
vt 0.589393 0.000000
vt 0.599866 0.000000
vt 0.599866 0.012827
vt 0.617595 0.025134
vt 0.617595 0.017728
vt 0.625000 0.025134
vt 0.150134 0.742595
vt 0.150134 0.750000
vt 0.142728 0.742595
vt 0.132405 0.724866
vt 0.132405 0.732272
vt 0.125000 0.724866
vt 0.589393 0.489677
vt 0.599866 0.500519
vt 0.625519 0.525134
vt 0.624481 0.525134
vt 0.375519 0.525134
vt 0.357272 0.507405
vt 0.367595 0.517728
vt 0.599866 0.749481
vt 0.607272 0.757405
vt 0.617595 0.767728
vt 0.357272 0.724866
vt 0.357272 0.742595
vt 0.617595 0.232272
vt 0.607272 0.242595
vt 0.599866 0.250519
vt 0.132405 0.517728
vt 0.607272 0.007405
vt 0.125000 0.714393
vt 0.160607 0.500000
vt 0.410607 0.510323
vt 0.410607 0.489677
vt 0.410607 0.000000
vt 0.625000 0.964393
vt 0.160607 0.750000
vt 0.625000 0.035607
vt 0.625000 0.285607
vn 0.5396 0.1761 0.8233
vn 0.5396 -0.1761 0.8233
vn 0.8233 -0.1761 0.5396
vn 0.8233 0.1761 0.5396
vn -0.5396 -0.8233 -0.1761
vn -0.5396 -0.8233 0.1761
vn -0.8233 -0.5396 0.1761
vn -0.8233 -0.5396 -0.1761
vn 0.7177 -0.4924 0.4924
vn 0.4924 -0.4924 0.7177
vn 0.4924 -0.7177 0.4924
vn 0.9619 -0.1934 -0.1934
vn 0.9619 0.1934 -0.1934
vn 0.9619 0.1934 0.1934
vn 0.9619 -0.1934 0.1934
vn 0.5396 -0.8233 0.1761
vn 0.5396 -0.8233 -0.1761
vn 0.8233 -0.5396 -0.1761
vn 0.8233 -0.5396 0.1761
vn -0.1934 -0.1934 -0.9619
vn -0.1934 0.1934 -0.9619
vn 0.1934 0.1934 -0.9619
vn 0.1934 -0.1934 -0.9619
vn 0.1761 -0.8233 -0.5396
vn -0.1761 -0.8233 -0.5396
vn -0.1761 -0.5396 -0.8233
vn 0.1761 -0.5396 -0.8233
vn 0.1761 0.8233 0.5396
vn -0.1761 0.8233 0.5396
vn -0.1761 0.5396 0.8233
vn 0.1761 0.5396 0.8233
vn -0.1761 -0.8233 0.5396
vn 0.1761 -0.8233 0.5396
vn 0.1761 -0.5396 0.8233
vn -0.1761 -0.5396 0.8233
vn -0.5396 0.1761 -0.8233
vn -0.5396 -0.1761 -0.8233
vn -0.8233 -0.1761 -0.5396
vn -0.8233 0.1761 -0.5396
vn -0.7177 0.4924 0.4924
vn -0.4924 0.4924 0.7177
vn -0.4924 0.7177 0.4924
vn -0.5396 -0.1761 0.8233
vn -0.5396 0.1761 0.8233
vn -0.8233 0.1761 0.5396
vn -0.8233 -0.1761 0.5396
vn -0.7177 -0.4924 -0.4924
vn -0.4924 -0.4924 -0.7177
vn -0.4924 -0.7177 -0.4924
vn -0.1934 -0.9619 -0.1934
vn 0.1934 -0.9619 -0.1934
vn 0.1934 -0.9619 0.1934
vn -0.1934 -0.9619 0.1934
vn 0.4924 0.4924 -0.7177
vn 0.4924 0.7177 -0.4924
vn 0.7177 0.4924 -0.4924
vn -0.4924 -0.7177 0.4924
vn -0.4924 -0.4924 0.7177
vn -0.7177 -0.4924 0.4924
vn 0.7177 0.4924 0.4924
vn 0.4924 0.7177 0.4924
vn 0.4924 0.4924 0.7177
vn -0.5396 0.8233 0.1761
vn -0.5396 0.8233 -0.1761
vn -0.8233 0.5396 -0.1761
vn -0.8233 0.5396 0.1761
vn 0.1934 -0.1934 0.9619
vn 0.1934 0.1934 0.9619
vn -0.1934 0.1934 0.9619
vn -0.1934 -0.1934 0.9619
vn 0.1934 0.9619 -0.1934
vn -0.1934 0.9619 -0.1934
vn -0.1934 0.9619 0.1934
vn 0.1934 0.9619 0.1934
vn -0.4924 0.4924 -0.7177
vn -0.7177 0.4924 -0.4924
vn -0.4924 0.7177 -0.4924
vn -0.9619 -0.1934 0.1934
vn -0.9619 0.1934 0.1934
vn -0.9619 0.1934 -0.1934
vn -0.9619 -0.1934 -0.1934
vn 0.5396 0.8233 -0.1761
vn 0.5396 0.8233 0.1761
vn 0.8233 0.5396 0.1761
vn 0.8233 0.5396 -0.1761
vn 0.4924 -0.7177 -0.4924
vn 0.4924 -0.4924 -0.7177
vn 0.7177 -0.4924 -0.4924
vn -0.1761 0.8233 -0.5396
vn 0.1761 0.8233 -0.5396
vn 0.1761 0.5396 -0.8233
vn -0.1761 0.5396 -0.8233
vn 0.5396 0.1761 -0.8233
vn 0.8233 0.1761 -0.5396
vn 0.5396 -0.1761 -0.8233
vn 0.8233 -0.1761 -0.5396
g Cube_Cube_Material
s 1
f 33/1/1 41/2/2 39/3/3 25/4/4
f 69/5/5 85/6/6 93/7/7 61/8/8
f 40/9/9 44/10/10 46/11/11
f 24/12/12 12/13/13 26/14/14 38/15/15
f 45/16/16 13/17/17 21/18/18 37/19/19
f 66/20/20 50/21/21 2/22/22 18/23/23
f 15/24/24 71/25/25 67/26/26 17/27/27
f 31/28/28 83/29/29 79/30/30 35/31/31
f 87/32/32 47/33/33 43/34/34 89/35/35
f 51/36/36 65/37/37 63/38/38 53/39/39
f 76/40/40 80/41/41 82/42/42
f 91/43/43 77/44/44 75/45/45 95/46/46
f 64/47/47 68/48/48 70/49/49
f 72/50/50 14/51/51 48/52/52 86/53/53
f 4/54/54 8/55/55 10/56/56
f 88/57/57 92/58/58 94/59/59
f 28/60/60 32/61/61 34/62/62
f 81/63/63 59/64/64 55/65/65 73/66/66
f 42/67/67 36/68/68 78/69/69 90/70/70
f 6/71/71 60/72/72 84/73/73 30/74/74
f 52/75/75 56/76/76 58/77/77
f 96/78/78 74/79/79 54/80/80 62/81/81
f 7/82/82 29/83/83 27/84/84 11/85/85
f 16/86/86 20/87/87 22/88/88
f 57/89/89 5/90/90 3/91/91 49/92/92
f 1/93/93 2/22/22 3/94/91 4/95/54
f 5/90/90 6/96/71 7/97/82 8/98/55
f 9/99/94 10/100/56 11/101/85 12/102/13
f 13/103/17 14/51/51 15/104/24 16/105/86
f 17/27/27 18/106/23 19/107/95 20/108/87
f 21/18/18 22/109/88 23/110/96 24/111/12
f 25/4/4 26/112/14 27/113/84 28/114/60
f 29/115/83 30/116/74 31/28/28 32/117/61
f 33/118/1 34/119/62 35/120/31 36/68/68
f 37/121/19 38/122/15 39/123/3 40/9/9
f 41/124/2 42/125/67 43/34/34 44/126/10
f 45/127/16 46/128/11 47/129/33 48/52/52
f 49/130/92 50/131/21 51/36/36 52/132/75
f 53/133/39 54/80/80 55/134/65 56/135/76
f 57/136/89 58/137/77 59/64/64 60/138/72
f 61/8/8 62/139/81 63/140/38 64/141/47
f 65/142/37 66/143/20 67/144/26 68/48/48
f 69/5/5 70/49/49 71/25/25 72/50/50
f 73/66/66 74/79/79 75/45/45 76/40/40
f 77/44/44 78/145/69 79/146/30 80/147/41
f 81/148/63 82/42/42 83/149/29 84/150/73
f 85/6/6 86/53/53 87/32/32 88/57/57
f 89/151/35 90/152/70 91/153/43 92/58/58
f 93/154/7 94/59/59 95/155/46 96/156/78
f 9/99/94 1/157/93 4/158/54 10/100/56
f 3/91/91 5/90/90 8/55/55 4/54/54
f 7/82/82 11/85/85 10/159/56 8/160/55
f 21/18/18 13/17/17 16/161/86 22/109/88
f 15/24/24 17/27/27 20/87/87 16/86/86
f 19/162/95 23/163/96 22/88/88 20/87/87
f 33/1/1 25/4/4 28/114/60 34/164/62
f 27/165/84 29/166/83 32/61/61 28/60/60
f 31/28/28 35/31/31 34/62/62 32/61/61
f 45/167/16 37/121/19 40/9/9 46/11/11
f 39/123/3 41/168/2 44/10/10 40/9/9
f 43/34/34 47/33/33 46/11/11 44/10/10
f 57/169/89 49/170/92 52/75/75 58/77/77
f 51/36/36 53/39/39 56/171/76 52/132/75
f 55/65/65 59/64/64 58/77/77 56/76/76
f 69/5/5 61/8/8 64/47/47 70/49/49
f 63/172/38 65/142/37 68/48/48 64/47/47
f 67/26/26 71/25/25 70/49/49 68/48/48
f 81/63/63 73/66/66 76/40/40 82/42/42
f 75/45/45 77/44/44 80/41/41 76/40/40
f 79/173/30 83/149/29 82/42/42 80/41/41
f 93/7/7 85/6/6 88/57/57 94/59/59
f 87/32/32 89/35/35 92/58/58 88/57/57
f 91/153/43 95/155/46 94/59/59 92/58/58
f 72/50/50 86/53/53 85/6/6 69/5/5
f 96/174/78 62/139/81 61/8/8 93/7/7
f 14/51/51 72/50/50 71/25/25 15/24/24
f 66/175/20 18/106/23 17/27/27 67/26/26
f 12/13/13 24/12/12 23/176/96 9/99/94
f 18/23/23 2/22/22 1/157/93 19/177/95
f 90/178/70 78/145/69 77/44/44 91/43/43
f 74/79/79 96/78/78 95/46/46 75/45/45
f 36/68/68 42/67/67 41/2/2 33/1/1
f 38/15/15 26/14/14 25/4/4 39/3/3
f 50/21/21 66/20/20 65/37/37 51/36/36
f 62/81/81 54/80/80 53/39/39 63/38/38
f 30/116/74 84/179/73 83/29/29 31/28/28
f 78/69/69 36/68/68 35/31/31 79/30/30
f 6/71/71 30/74/74 29/83/83 7/82/82
f 26/14/14 12/13/13 11/85/85 27/84/84
f 86/53/53 48/52/52 47/33/33 87/32/32
f 42/125/67 90/180/70 89/35/35 43/34/34
f 84/181/73 60/138/72 59/64/64 81/63/63
f 54/80/80 74/79/79 73/66/66 55/65/65
f 60/182/72 6/96/71 5/90/90 57/89/89
f 2/22/22 50/21/21 49/92/92 3/91/91
f 48/52/52 14/51/51 13/17/17 45/16/16
f 24/12/12 38/15/15 37/19/19 21/18/18
f 9/99/94 23/176/96 19/177/95 1/157/93
